<?xml version="1.0" encoding="iso-8859-1"?>
<!-- Generator: Adobe Illustrator 19.0.0, SVG Export Plug-In . SVG Version: 6.00 Build 0)  -->
<svg version="1.1" id="Layer_1" xmlns="http://www.w3.org/2000/svg" xmlns:xlink="http://www.w3.org/1999/xlink" x="0px" y="0px"
	 viewBox="0 0 512 512" style="enable-background:new 0 0 512 512;" xml:space="preserve">
<g>
	<g>
		<path d="M463.126,48.874c-65.149-65.161-170.932-65.169-236.09-0.001c-42.589,42.589-58.68,103.535-43.193,161.237L4.891,390.531
			C1.761,393.661,0,397.906,0,402.334v92.971c0,9.222,7.472,16.694,16.694,16.694h92.971c4.428,0,8.673-1.761,11.803-4.891
			l23.607-23.607c3.131-3.131,5.003-7.374,5.003-11.803v-28.834h30.414c4.428,0,8.673-1.983,11.803-5.113l23.612-23.612
			c3.131-3.131,5.448-7.374,5.448-11.803v-29.523h29.969c4.428,0,8.673-2.762,11.803-5.892l38.763-38.763
			c57.723,15.499,118.653-0.603,161.237-43.193C528.276,219.836,528.306,114.031,463.126,48.874z M414.53,191.976
			c-26.046,26.035-68.396,26.031-94.443,0.006l-0.006-0.006c-26.031-26.041-26.031-68.402,0.006-94.433
			c26.051-26.062,68.372-26.078,94.439,0C440.561,123.575,440.561,165.935,414.53,191.976z"/>
	</g>
</g>
<g>
</g>
<g>
</g>
<g>
</g>
<g>
</g>
<g>
</g>
<g>
</g>
<g>
</g>
<g>
</g>
<g>
</g>
<g>
</g>
<g>
</g>
<g>
</g>
<g>
</g>
<g>
</g>
<g>
</g>
</svg>
